# xmcd
#
# Track frame offsets: 
#        150
#        22993
#        51068
#        128425
#        168032
#
# Disc length: 2800 seconds
#
# Revision: 0
# Processed by: cddbd v1.5.2PL0 Copyright (c) Steve Scherf et al.
# Submitted via: ExactAudioCopy v0.95b3
#
DISCID=2c0aee05
DTITLE=Jimi Hendrix  - Kick Out The Jams - Disc 2 - 153  FLAC
DYEAR=1900
DGENRE=
TTITLE0=Hoochie Coochie Man
TTITLE1=Jam I
TTITLE2=Jam II
TTITLE3=Jam III
TTITLE4=Little Wing Jam
EXTD=
EXTT0=
EXTT1=
EXTT2=
EXTT3=
EXTT4=
PLAYORDER=
